<svg xmlns="http://www.w3.org/2000/svg" version="1.1" width="100" height="100" viewBox="0 0 100 100" xml:space="preserve">
<defs>
</defs>
<g transform="matrix(1 0 0 1 50 50)" id="ec272dc4-94fb-44cf-baf0-79068672c473"  >
<rect style="stroke: none; stroke-width: 1; stroke-dasharray: none; stroke-linecap: butt; stroke-dashoffset: 0; stroke-linejoin: miter; stroke-miterlimit: 4; fill: rgb(255,255,255); fill-rule: nonzero; opacity: 1; visibility: hidden;" vector-effect="non-scaling-stroke"  x="-50" y="-50" rx="0" ry="0" width="100" height="100" />
</g>
<g transform="matrix(Infinity NaN NaN Infinity 0 0)" id="d86822dd-9098-4302-8c9e-1652406b6520"  >
</g>
<g transform="matrix(0.23 0 0 0.23 50 50)"  >
<rect style="stroke: none; stroke-width: 1; stroke-dasharray: none; stroke-linecap: butt; stroke-dashoffset: 0; stroke-linejoin: miter; stroke-miterlimit: 4; fill: rgb(255,255,255); fill-rule: nonzero; opacity: 1; visibility: hidden;" vector-effect="non-scaling-stroke"  x="-540" y="-540" rx="0" ry="0" width="1080" height="1080" />
</g>
<g transform="matrix(0.23 0 0 0.23 17.61 63.62)"  >
<path style="stroke: none; stroke-width: 1; stroke-dasharray: none; stroke-linecap: butt; stroke-dashoffset: 0; stroke-linejoin: miter; stroke-miterlimit: 4; fill: rgb(217,64,4); fill-rule: nonzero; opacity: 1;" vector-effect="non-scaling-stroke"  transform=" translate(-107.8, -312.32)" d="M 40.999863 397.745789 C 39.737316 377.005951 45.774471 358.265808 53.545692 340.042847 C 65.694855 311.553802 81.422951 285.04541 100.188744 260.447266 C 113.350822 243.194443 127.450607 226.659653 140.79332 209.540512 C 145.45842 203.555038 150.597153 199.532547 158.436874 198.922745 C 170.890228 197.954056 178.168243 210.509567 173.197037 221.22142 C 171.718018 224.408356 169.539749 227.34021 167.328339 230.106308 C 155.269058 245.190353 142.745819 259.917053 131.053619 275.27774 C 114.97802 296.397095 102.218811 319.561005 90.832657 343.50415 C 79.807663 366.687805 71.945557 390.937103 66.007286 415.855225 C 65.221581 419.152161 64.502647 422.464996 63.753296 425.768188 C 49.364933 422.759735 42.284626 411.502716 40.999863 397.745789 z" stroke-linecap="round" />
</g>
<g transform="matrix(0.23 0 0 0.23 63.8 17.65)"  >
<path style="stroke: none; stroke-width: 1; stroke-dasharray: none; stroke-linecap: butt; stroke-dashoffset: 0; stroke-linejoin: miter; stroke-miterlimit: 4; fill: rgb(217,64,4); fill-rule: nonzero; opacity: 1;" vector-effect="non-scaling-stroke"  transform=" translate(-312, -107.96)" d="M 269.642761 93.747383 C 279.148407 87.406487 288.058197 80.771034 297.604156 75.231903 C 317.9375 63.43327 338.78714 52.663063 361.451965 45.791588 C 373.992981 41.989422 386.754486 39.834061 399.72522 41.162594 C 411.282166 42.346313 420.321442 48.101944 424.907196 60.125416 C 418.847382 61.983696 412.753113 63.873386 406.646362 65.721626 C 378.025024 74.383995 350.402374 85.734833 324.519226 100.513527 C 303.28244 112.639252 283.008057 126.585716 263.055664 140.777634 C 250.009018 150.057602 238.305847 161.224884 225.986755 171.529922 C 220.955612 175.738541 211.477737 176.469009 206.301086 172.657471 C 200.565552 168.434402 197.722595 162.025711 199.758087 154.14003 C 201.855972 146.012634 208.218613 141.8396 213.715042 137.016418 C 223.7798 128.184509 234.328796 119.885574 244.916641 111.674866 C 252.860687 105.514374 261.181915 99.840286 269.642761 93.747383 z" stroke-linecap="round" />
</g>
<g transform="matrix(0.23 0 0 0.23 83.62 33.69)"  >
<path style="stroke: none; stroke-width: 1; stroke-dasharray: none; stroke-linecap: butt; stroke-dashoffset: 0; stroke-linejoin: miter; stroke-miterlimit: 4; fill: rgb(217,64,4); fill-rule: nonzero; opacity: 1;" vector-effect="non-scaling-stroke"  transform=" translate(-399.62, -178.9)" d="M 394.025452 189.055283 C 416.967529 152.680222 437.099976 115.612869 439.339447 70.825455 C 447.735168 80.032349 459.210571 86.52372 460.261505 99.947136 C 460.961121 108.883293 460.807281 118.122398 459.345306 126.945885 C 455.481476 150.265488 445.123199 171.301407 433.941345 191.797089 C 421.319 214.933151 406.579773 236.753998 390.111542 257.359894 C 382.666046 266.676086 374.838074 275.691467 367.557739 285.131805 C 365.358032 287.984161 364.805969 287.205566 363.324097 284.888397 C 357.206268 275.322021 349.243164 267.696564 338.585388 262.333069 C 358.78067 239.154739 377.341003 215.019577 394.025452 189.055283 z" stroke-linecap="round" />
</g>
<g transform="matrix(0.23 0 0 0.23 33.68 83.73)"  >
<path style="stroke: none; stroke-width: 1; stroke-dasharray: none; stroke-linecap: butt; stroke-dashoffset: 0; stroke-linejoin: miter; stroke-miterlimit: 4; fill: rgb(217,64,4); fill-rule: nonzero; opacity: 1;" vector-effect="non-scaling-stroke"  transform=" translate(-178.83, -400.11)" d="M 254.789124 344.681885 C 257.344482 342.634735 259.666809 340.863007 262.312744 338.84436 C 267.624146 349.294647 275.521698 357.387146 285.291107 363.624512 C 287.519897 365.047516 287.61087 365.426514 285.525879 367.265869 C 264.336884 385.958282 241.766235 402.87384 218.112427 418.223206 C 193.75383 434.029907 168.298447 447.991394 140.238968 456.287994 C 125.442467 460.663055 110.298393 463.788025 94.985191 458.888153 C 90.972618 457.604248 87.187065 454.961548 83.898674 452.221191 C 79.365158 448.443237 75.402664 443.980072 70.634636 439.254486 C 88.729683 438.02359 105.863014 435.940552 121.743217 428.933533 C 137.876541 421.814941 154.225296 414.798157 169.306564 405.775818 C 189.85994 393.479797 209.49498 379.601562 229.133087 365.844025 C 238.089325 359.569672 246.110687 351.960846 254.789124 344.681885 z" stroke-linecap="round" />
</g>
<g transform="matrix(0.23 0 0 0.23 64.29 64.26)"  >
<path style="stroke: none; stroke-width: 1; stroke-dasharray: none; stroke-linecap: butt; stroke-dashoffset: 0; stroke-linejoin: miter; stroke-miterlimit: 4; fill: rgb(217,64,4); fill-rule: nonzero; opacity: 1;" vector-effect="non-scaling-stroke"  transform=" translate(-314.2, -314.07)" d="M 275.26059 338.661804 C 258.954742 311.553864 272.206024 277.108185 303.848358 269.34256 C 318.044647 265.858459 331.528076 269.195831 343.249207 278.683105 C 364.804932 296.130676 365.792114 328.634705 345.843628 347.564392 C 329.333984 363.230865 302.166473 364.764954 284.879883 349.28183 C 281.431946 346.193604 278.59082 342.427948 275.26059 338.661804 z" stroke-linecap="round" />
</g>
</svg>